HIERARCHY
ROOT Hips
{
	OFFSET -0.001795 -0.223333 0.028219
	CHANNELS 6 Xposition Yposition Zposition Zrotation Yrotation Xrotation
	JOINT LeftUpLeg
	{
		OFFSET 0.069520 -0.091406 -0.006815
		CHANNELS 3 Zrotation Yrotation Xrotation
		JOINT LeftLeg
		{
			OFFSET 0.034277 -0.375199 -0.004496
			CHANNELS 3 Zrotation Yrotation Xrotation
			JOINT LeftFoot
			{
				OFFSET -0.013596 -0.397961 -0.043693
				CHANNELS 3 Zrotation Yrotation Xrotation
				JOINT LeftToe
				{
					OFFSET 0.026358 -0.055791 0.119288
					CHANNELS 3 Zrotation Yrotation Xrotation
					End Site
					{
						OFFSET 0.000000 0.000000 0.000000
					}
				}
			}
		}
	}
	JOINT RightUpLeg
	{
		OFFSET -0.067670 -0.090522 -0.004320
		CHANNELS 3 Zrotation Yrotation Xrotation
		JOINT RightLeg
		{
			OFFSET -0.038290 -0.382569 -0.008850
			CHANNELS 3 Zrotation Yrotation Xrotation
			JOINT RightFoot
			{
				OFFSET 0.015774 -0.398415 -0.042312
				CHANNELS 3 Zrotation Yrotation Xrotation
				JOINT RightToe
				{
					OFFSET -0.025372 -0.048144 0.123348
					CHANNELS 3 Zrotation Yrotation Xrotation
					End Site
					{
						OFFSET 0.000000 0.000000 0.000000
					}
				}
			}
		}
	}
	JOINT Spine
	{
		OFFSET -0.002533 0.108963 -0.026696
		CHANNELS 3 Zrotation Yrotation Xrotation
		JOINT Spine1
		{
			OFFSET 0.005487 0.135180 0.001092
			CHANNELS 3 Zrotation Yrotation Xrotation
			JOINT Spine2
			{
				OFFSET 0.001457 0.052922 0.025425
				CHANNELS 3 Zrotation Yrotation Xrotation
				JOINT Neck
				{
					OFFSET -0.002778 0.213870 -0.042857
					CHANNELS 3 Zrotation Yrotation Xrotation
					JOINT Head
					{
						OFFSET 0.005152 0.064970 0.051349
						CHANNELS 3 Zrotation Yrotation Xrotation
						End Site
						{
							OFFSET 0.000000 0.000000 0.000000
						}
					}
				}
				JOINT LeftShoulder
				{
					OFFSET 0.078845 0.121749 -0.034090
					CHANNELS 3 Zrotation Yrotation Xrotation
					JOINT LeftArm
					{
						OFFSET 0.090977 0.030469 -0.008868
						CHANNELS 3 Zrotation Yrotation Xrotation
						JOINT LeftForeArm
						{
							OFFSET 0.259612 -0.012772 -0.027456
							CHANNELS 3 Zrotation Yrotation Xrotation
							JOINT LeftHand
							{
								OFFSET 0.249234 0.008986 -0.001171
								CHANNELS 3 Zrotation Yrotation Xrotation
								End Site
								{
									OFFSET 0.000000 0.000000 0.000000
								}
							}
						}
					}
				}
				JOINT RightShoulder
				{
					OFFSET -0.081759 0.118833 -0.038615
					CHANNELS 3 Zrotation Yrotation Xrotation
					JOINT RightArm
					{
						OFFSET -0.096012 0.032551 -0.009143
						CHANNELS 3 Zrotation Yrotation Xrotation
						JOINT RightForeArm
						{
							OFFSET -0.253742 -0.013329 -0.021401
							CHANNELS 3 Zrotation Yrotation Xrotation
							JOINT RightHand
							{
								OFFSET -0.255298 0.007772 -0.005559
								CHANNELS 3 Zrotation Yrotation Xrotation
								End Site
								{
									OFFSET 0.000000 0.000000 0.000000
								}
							}
						}
					}
				}
			}
		}
	}
}
MOTION
Frames: 11
Frame Time: 0.050000
0.000000 0.842221 0.000000 -7.843136 11.483650 -18.376687 13.874489 -0.091030 -6.895542 -19.141422 4.588035 43.426804 12.336484 22.756543 -25.455498 0.000000 0.000000 0.000000 -5.111359 0.471366 -20.272587 12.660448 -9.118056 47.653137 -7.090730 -16.980193 10.669626 0.000000 0.000000 0.000000 -7.621191 -0.283265 14.503361 4.956527 -0.479996 -22.257611 -0.787621 0.326334 25.813859 1.603193 -3.855948 12.572402 0.000000 0.000000 0.000000 -12.014033 1.346299 -2.280102 -29.733562 -21.404646 -0.221183 120.376700 -59.675072 -88.553193 0.000000 0.000000 0.000000 2.641934 3.971330 1.616969 38.713190 5.431197 -4.241131 -162.945978 70.602003 -142.194797 0.000000 0.000000 0.000000
0.002687 0.825309 0.003096 -8.702537 12.706965 -18.064034 16.489135 -0.002951 -10.980822 -23.179969 6.426253 47.999750 12.501704 24.270979 -26.060794 0.000000 0.000000 0.000000 -5.336849 0.353127 -21.465931 13.728725 -11.174493 51.327852 -7.764007 -18.493345 2.962124 0.000000 0.000000 0.000000 -7.901111 -0.266982 12.701016 6.207498 -0.806764 -21.858655 -1.750089 -2.050045 26.975207 0.688673 -3.249619 15.271113 0.000000 0.000000 0.000000 -13.133403 4.325476 -3.588119 -32.019868 -23.267416 0.081208 119.290920 -60.295056 -86.765843 0.000000 0.000000 0.000000 1.356533 3.691920 1.397275 44.981386 2.936212 -5.668392 174.715535 72.381510 -173.365504 0.000000 0.000000 0.000000
0.005972 0.803698 0.006378 -7.972012 11.275709 -20.407639 17.400799 0.279325 -13.217377 -25.508886 8.824279 55.187301 12.771397 26.803409 -23.315835 0.000000 0.000000 0.000000 -6.295102 0.172561 -20.410159 13.911958 -11.580849 54.790131 -7.869880 -18.831674 -1.872134 0.000000 0.000000 0.000000 -7.505551 -0.332044 14.735832 6.405262 -0.947206 -22.118605 -2.047040 -1.442983 28.720943 0.638310 -2.102822 10.332720 0.000000 0.000000 0.000000 -14.427575 3.732399 -3.405557 -31.544628 -23.325799 -0.026383 121.680055 -60.429508 -89.277369 0.000000 0.000000 0.000000 -0.685219 1.329735 0.386298 48.560942 1.504560 -6.572382 156.586088 74.393219 163.080620 0.000000 0.000000 0.000000
0.009336 0.780810 0.009955 -8.782103 10.955057 -22.969678 19.494811 0.539540 -14.101992 -27.624368 10.969982 61.720690 12.457349 27.130159 -24.594876 0.000000 0.000000 0.000000 -5.369525 0.367882 -19.883054 13.321127 -12.552070 60.220596 -8.324119 -20.158560 -7.103086 0.000000 0.000000 0.000000 -7.387652 -0.404834 15.331505 7.714522 -1.510983 -20.851246 -3.701494 -2.066825 30.414649 0.099212 -1.594023 11.415809 0.000000 0.000000 0.000000 -16.378241 6.346891 -4.846646 -29.266466 -25.897305 0.286599 119.548579 -58.236689 -84.114371 0.000000 0.000000 0.000000 -0.944688 0.563955 0.112888 51.211717 1.728711 -7.009088 147.013625 78.784340 153.296625 0.000000 0.000000 0.000000
0.013058 0.757028 0.013924 -8.580509 10.529539 -25.326855 19.822538 0.776397 -16.286535 -28.810427 12.830587 67.138897 13.861115 31.406938 -19.653432 0.000000 0.000000 0.000000 -5.453606 0.340989 -20.607951 12.378249 -12.787958 65.086074 -9.695570 -23.453801 -6.423032 0.000000 0.000000 0.000000 -8.355472 -0.428815 17.972413 8.864071 -1.972805 -21.160277 -3.582836 -1.096409 30.777019 -0.458730 -1.115113 13.078375 0.000000 0.000000 0.000000 -16.983681 4.697082 -4.159081 -26.251068 -26.677307 0.240618 119.346204 -56.291380 -82.337370 0.000000 0.000000 0.000000 0.106251 0.162574 -0.000405 51.534604 -0.731419 -8.200986 139.087998 81.825670 146.213249 0.000000 0.000000 0.000000
0.017463 0.736222 0.018693 -9.379498 10.456665 -26.482633 20.764013 0.971744 -18.087972 -29.027864 13.802997 71.686919 13.911073 32.164497 -19.437601 0.000000 0.000000 0.000000 -4.037616 0.706003 -22.287639 11.334417 -13.393328 70.448389 -11.224199 -27.311901 -6.670877 0.000000 0.000000 0.000000 -8.247416 -0.493414 19.141411 9.175642 -2.002083 -22.257288 -2.927780 -2.324524 31.988020 -1.180065 -0.397150 15.235927 0.000000 0.000000 0.000000 -18.333135 5.010424 -4.229095 -24.486748 -28.860658 0.307447 121.754170 -53.702646 -81.505089 0.000000 0.000000 0.000000 0.314090 0.002761 -0.029817 51.421697 -2.276074 -9.154344 117.840265 85.006406 125.058769 0.000000 0.000000 0.000000
0.022987 0.722152 0.024604 -9.440352 10.716671 -27.340964 19.861948 0.892431 -18.883975 -28.541122 13.644113 73.929905 14.955290 34.877816 -18.058604 0.000000 0.000000 0.000000 -3.540717 0.827067 -23.129264 9.980518 -13.437429 74.844978 -11.912905 -29.055278 -7.023401 0.000000 0.000000 0.000000 -9.017157 -0.479017 19.531646 9.368359 -2.107434 -22.013639 -3.183884 -2.966627 31.561875 -1.338114 -0.441447 17.378175 0.000000 0.000000 0.000000 -18.011006 4.240614 -3.641009 -21.814211 -29.874136 0.174562 124.871585 -49.357244 -79.808475 0.000000 0.000000 0.000000 1.794920 -0.262188 -0.056897 49.921694 -5.425976 -10.295306 77.501819 84.831155 82.969653 0.000000 0.000000 0.000000
0.029590 0.718709 0.031670 -9.674653 11.454587 -27.589296 18.696365 0.660343 -17.971506 -27.278532 12.047940 73.788366 14.638495 34.992466 -20.839742 0.000000 0.000000 0.000000 -2.589345 1.063850 -24.703779 8.370728 -13.199727 78.254643 -13.586904 -31.553029 -1.922971 0.000000 0.000000 0.000000 -9.688674 -0.472409 20.126186 9.870986 -2.316881 -21.579198 -3.388554 -2.888362 30.628824 -1.581454 -0.747564 21.144660 0.000000 0.000000 0.000000 -18.641820 2.896763 -3.158508 -20.003234 -31.748631 0.294963 127.584148 -46.739698 -80.084145 0.000000 0.000000 0.000000 3.438633 -1.174149 -0.336609 48.766426 -8.284441 -11.174083 74.613279 83.818960 78.990448 0.000000 0.000000 0.000000
0.037067 0.723147 0.039591 -10.247309 13.418482 -28.203117 16.906618 0.297151 -16.967676 -25.634692 9.440886 73.870620 14.285131 33.934315 -21.672876 0.000000 0.000000 0.000000 -2.616770 0.906072 -25.159368 7.724606 -14.312426 79.709049 -16.223590 -34.448792 5.781245 0.000000 0.000000 0.000000 -9.969732 -0.558595 20.428617 9.671531 -2.110099 -22.018383 -3.818656 -3.802112 31.530532 -1.044900 -1.347136 19.108492 0.000000 0.000000 0.000000 -15.697402 1.568913 -2.133848 -20.652917 -34.118618 0.664384 127.141516 -45.379915 -77.832701 0.000000 0.000000 0.000000 1.426664 -3.029725 -1.041457 49.840259 -10.587581 -12.167002 74.932255 79.867532 75.856798 0.000000 0.000000 0.000000
0.045228 0.735111 0.048649 -10.463088 14.868820 -28.623926 14.262707 -0.038304 -15.832543 -23.662463 6.789007 72.376208 16.613912 37.377124 -16.135245 0.000000 0.000000 0.000000 -3.694730 0.415036 -27.789764 6.246607 -14.221644 82.783118 -14.495874 -29.448289 15.395973 0.000000 0.000000 0.000000 -10.179912 -0.618707 20.771921 7.355582 -1.258829 -21.376950 -2.793828 -6.336451 31.730619 -2.056340 0.753180 15.090905 0.000000 0.000000 0.000000 -14.530572 1.674273 -1.756265 -21.395239 -35.529833 0.924518 124.528386 -43.700135 -71.612910 0.000000 0.000000 0.000000 -0.278097 -3.150239 -1.053095 51.445663 -11.479790 -12.874260 67.631176 78.671962 67.049199 0.000000 0.000000 0.000000
0.053762 0.753874 0.061092 -10.690228 15.545067 -28.226364 13.174718 -0.145381 -14.534711 -21.869174 4.841870 69.233114 18.876439 38.489117 -8.023706 0.000000 0.000000 0.000000 -4.588434 -0.137869 -32.246398 7.515450 -15.970446 84.131881 -15.407322 -29.232324 24.972570 0.000000 0.000000 0.000000 -10.129365 -0.665309 21.224275 6.895436 -1.015616 -22.224777 -3.113720 -7.636617 31.816945 -2.791437 1.830846 14.703462 0.000000 0.000000 0.000000 -12.954349 1.653100 -1.464899 -23.661987 -34.244714 1.049363 125.842203 -45.726135 -74.953452 0.000000 0.000000 0.000000 -1.482256 -5.536162 -1.809596 51.620199 -11.175993 -12.770787 87.935120 74.564126 82.064803 0.000000 0.000000 0.000000
